<?xml version="1.0" encoding="utf-8"?>

<svg version="1.1" id="Layer_1" xmlns="http://www.w3.org/2000/svg" xmlns:xlink="http://www.w3.org/1999/xlink" x="0px" y="0px" viewBox="0 0 1922.87 660.3" style="enable-background:new 0 0 1922.87 660.3;" xml:space="preserve">



<path fill="#FFFFFF" d="M220.58,330.36c0-64.05,51.16-114.24,117.92-114.24c37.83,0,70.65,16.12,91.99,41.74l-37.02,28.95&#xA;&#x9;c-12.79-15.98-32.72-25.6-55.1-25.6c-38.6,0-69.9,28.64-69.9,69.07s31.29,69.07,69.9,69.07c22.74,0,42.95-9.94,55.71-26.37&#xA;&#x9;l37.58,28.33c-21.3,26.36-54.63,42.96-93.16,42.96C271.74,444.26,220.58,394.41,220.58,330.36"></path>
<path fill="#FFFFFF" d="M572.14,210.82l125.9,229h-51.67l-22.24-41.41H519.35l-22.1,41.41h-52.67L572.14,210.82z M602.72,358.56&#xA;&#x9;l-31.13-57.97l-30.95,57.97H602.72z"></path>
<polygon fill="#FFFFFF" points="730.68,220.31 778.43,220.31 889.81,368.77 889.81,220.31 937.77,220.31 937.77,439.87 890.52,439.87 &#xA;&#x9;778.91,291.65 778.91,439.87 730.68,439.87 "></polygon>
<path fill="#FFFFFF" d="M1095.82,210.82l125.9,229h-51.67l-22.23-41.41h-104.78l-22.1,41.41h-52.67L1095.82,210.82z M1126.4,358.56&#xA;&#x9;l-31.13-57.97l-30.95,57.97H1126.4z"></path>
<path fill="#FFFFFF" d="M1386.81,439.87l-84.22-91.88v91.88h-48.24V220.31h104.58c50.83,0,82.89,25.83,82.89,69.91&#xA;&#x9;c0,42.89-25.95,65.38-73.48,67l82.63,82.66H1386.81z M1302.59,317.28h60.21c18.23,0,29.84-9.02,29.84-27.06&#xA;&#x9;c0-17.62-11.6-26.84-29.84-26.84h-60.21V317.28z"></path>
<path fill="#FFFFFF" d="M571.98,210.82l125.84,228.9h-51.65l-22.23-41.39H519.22l-22.09,41.39h-52.65L571.98,210.82z M602.55,358.49&#xA;&#x9;l-31.12-57.94l-30.93,57.94H602.55z"></path>
<polygon fill="#FFFFFF" points="730.45,220.31 778.17,220.31 889.51,368.7 889.51,220.31 937.44,220.31 937.44,439.77 890.22,439.77 &#xA;&#x9;778.66,291.61 778.66,439.77 730.45,439.77 "></polygon>
<path fill="#FFFFFF" d="M1095.43,210.82l125.84,228.9h-51.65l-22.22-41.39h-104.74l-22.09,41.39h-52.65L1095.43,210.82z&#xA;&#x9; M1125.99,358.49l-31.12-57.94l-30.93,57.94H1125.99z"></path>
<path fill="#FFFFFF" d="M1386.29,439.77l-84.18-91.84v91.84h-48.21V220.31h104.53c50.81,0,82.85,25.82,82.85,69.88&#xA;&#x9;c0,42.87-25.94,65.35-73.45,66.96l82.6,82.62H1386.29z M1302.1,317.23h60.18c18.23,0,29.82-9.02,29.82-27.04&#xA;&#x9;c0-17.61-11.6-26.83-29.82-26.83h-60.18V317.23z"></path>
<polygon fill="#FFFFFF" points="1641.29,228.25 1582.32,307.04 1523.48,228.25 1458.83,220.58 1552.93,346.31 1482.98,439.77 &#xA;&#x9;1538.24,439.77 1702.29,220.58 "></polygon>
</svg>